<?xml version="1.0" encoding="UTF-8"?>
<svg width="70px" height="470px" viewBox="0 0 70 470" version="1.1" xmlns="http://www.w3.org/2000/svg" xmlns:xlink="http://www.w3.org/1999/xlink">
    <!-- Generator: sketchtool 63.1 (101010) - https://sketch.com -->
    <title>786D7CFA-29D3-49EE-9F40-7E8DA4C285E4@1.5x</title>
    <desc>Created with sketchtool.</desc>
    <g id="Home" stroke="none" stroke-width="1" fill="none" fill-rule="evenodd" opacity="0.15">
        <g id="3.0_web_home_2" transform="translate(-8.000000, -6062.000000)" fill="#0F63F4">
            <g id="api_dots_1" transform="translate(8.000000, 6062.000000)">
                <circle id="Oval" opacity="0.3" transform="translate(65.000000, 325.000000) rotate(90.000000) translate(-65.000000, -325.000000) " cx="65" cy="325" r="5"></circle>
                <circle id="Oval-Copy-13" opacity="0.3" transform="translate(65.000000, 345.000000) rotate(90.000000) translate(-65.000000, -345.000000) " cx="65" cy="345" r="5"></circle>
                <circle id="Oval-Copy-14" opacity="0.3" transform="translate(65.000000, 365.000000) rotate(90.000000) translate(-65.000000, -365.000000) " cx="65" cy="365" r="5"></circle>
                <circle id="Oval-Copy-15" opacity="0.3" transform="translate(65.000000, 385.000000) rotate(90.000000) translate(-65.000000, -385.000000) " cx="65" cy="385" r="5"></circle>
                <circle id="Oval-Copy-16" opacity="0.3" transform="translate(65.000000, 405.000000) rotate(90.000000) translate(-65.000000, -405.000000) " cx="65" cy="405" r="5"></circle>
                <circle id="Oval-Copy-17" opacity="0.3" transform="translate(65.000000, 425.000000) rotate(90.000000) translate(-65.000000, -425.000000) " cx="65" cy="425" r="5"></circle>
                <circle id="Oval-Copy-18" opacity="0.3" transform="translate(65.000000, 445.000000) rotate(90.000000) translate(-65.000000, -445.000000) " cx="65" cy="445" r="5"></circle>
                <circle id="Oval-Copy-19" opacity="0.3" transform="translate(65.000000, 465.000000) rotate(90.000000) translate(-65.000000, -465.000000) " cx="65" cy="465" r="5"></circle>
                <circle id="Oval-Copy-31" opacity="0.3" transform="translate(45.000000, 325.000000) rotate(90.000000) translate(-45.000000, -325.000000) " cx="45" cy="325" r="5"></circle>
                <circle id="Oval-Copy-30" opacity="0.3" transform="translate(45.000000, 345.000000) rotate(90.000000) translate(-45.000000, -345.000000) " cx="45" cy="345" r="5"></circle>
                <circle id="Oval-Copy-29" opacity="0.3" transform="translate(45.000000, 365.000000) rotate(90.000000) translate(-45.000000, -365.000000) " cx="45" cy="365" r="5"></circle>
                <circle id="Oval-Copy-28" opacity="0.3" transform="translate(45.000000, 385.000000) rotate(90.000000) translate(-45.000000, -385.000000) " cx="45" cy="385" r="5"></circle>
                <circle id="Oval-Copy-27" opacity="0.3" transform="translate(45.000000, 405.000000) rotate(90.000000) translate(-45.000000, -405.000000) " cx="45" cy="405" r="5"></circle>
                <circle id="Oval-Copy-26" opacity="0.3" transform="translate(45.000000, 425.000000) rotate(90.000000) translate(-45.000000, -425.000000) " cx="45" cy="425" r="5"></circle>
                <circle id="Oval-Copy-25" opacity="0.3" transform="translate(45.000000, 445.000000) rotate(90.000000) translate(-45.000000, -445.000000) " cx="45" cy="445" r="5"></circle>
                <circle id="Oval-Copy-24" opacity="0.3" transform="translate(45.000000, 465.000000) rotate(90.000000) translate(-45.000000, -465.000000) " cx="45" cy="465" r="5"></circle>
                <circle id="Oval-Copy-41" opacity="0.3" transform="translate(25.000000, 325.000000) rotate(90.000000) translate(-25.000000, -325.000000) " cx="25" cy="325" r="5"></circle>
                <circle id="Oval-Copy-40" opacity="0.3" transform="translate(25.000000, 345.000000) rotate(90.000000) translate(-25.000000, -345.000000) " cx="25" cy="345" r="5"></circle>
                <circle id="Oval-Copy-39" opacity="0.3" transform="translate(25.000000, 365.000000) rotate(90.000000) translate(-25.000000, -365.000000) " cx="25" cy="365" r="5"></circle>
                <circle id="Oval-Copy-38" opacity="0.3" transform="translate(25.000000, 385.000000) rotate(90.000000) translate(-25.000000, -385.000000) " cx="25" cy="385" r="5"></circle>
                <circle id="Oval-Copy-37" opacity="0.3" transform="translate(25.000000, 405.000000) rotate(90.000000) translate(-25.000000, -405.000000) " cx="25" cy="405" r="5"></circle>
                <circle id="Oval-Copy-36" opacity="0.3" transform="translate(25.000000, 425.000000) rotate(90.000000) translate(-25.000000, -425.000000) " cx="25" cy="425" r="5"></circle>
                <circle id="Oval-Copy-35" opacity="0.3" transform="translate(25.000000, 445.000000) rotate(90.000000) translate(-25.000000, -445.000000) " cx="25" cy="445" r="5"></circle>
                <circle id="Oval-Copy-34" opacity="0.3" transform="translate(25.000000, 465.000000) rotate(90.000000) translate(-25.000000, -465.000000) " cx="25" cy="465" r="5"></circle>
                <circle id="Oval-Copy-51" opacity="0.3" transform="translate(5.000000, 325.000000) rotate(90.000000) translate(-5.000000, -325.000000) " cx="5" cy="325" r="5"></circle>
                <circle id="Oval-Copy-50" opacity="0.3" transform="translate(5.000000, 345.000000) rotate(90.000000) translate(-5.000000, -345.000000) " cx="5" cy="345" r="5"></circle>
                <circle id="Oval-Copy-49" opacity="0.3" transform="translate(5.000000, 365.000000) rotate(90.000000) translate(-5.000000, -365.000000) " cx="5" cy="365" r="5"></circle>
                <circle id="Oval-Copy-48" opacity="0.3" transform="translate(5.000000, 385.000000) rotate(90.000000) translate(-5.000000, -385.000000) " cx="5" cy="385" r="5"></circle>
                <circle id="Oval-Copy-47" opacity="0.3" transform="translate(5.000000, 405.000000) rotate(90.000000) translate(-5.000000, -405.000000) " cx="5" cy="405" r="5"></circle>
                <circle id="Oval-Copy-46" opacity="0.3" transform="translate(5.000000, 425.000000) rotate(90.000000) translate(-5.000000, -425.000000) " cx="5" cy="425" r="5"></circle>
                <circle id="Oval-Copy-45" opacity="0.3" transform="translate(5.000000, 445.000000) rotate(90.000000) translate(-5.000000, -445.000000) " cx="5" cy="445" r="5"></circle>
                <circle id="Oval-Copy-44" opacity="0.3" transform="translate(5.000000, 465.000000) rotate(90.000000) translate(-5.000000, -465.000000) " cx="5" cy="465" r="5"></circle>
                <circle id="Oval" opacity="0.3" transform="translate(65.000000, 165.000000) rotate(90.000000) translate(-65.000000, -165.000000) " cx="65" cy="165" r="5"></circle>
                <circle id="Oval-Copy-13" opacity="0.3" transform="translate(65.000000, 185.000000) rotate(90.000000) translate(-65.000000, -185.000000) " cx="65" cy="185" r="5"></circle>
                <circle id="Oval-Copy-14" opacity="0.3" transform="translate(65.000000, 205.000000) rotate(90.000000) translate(-65.000000, -205.000000) " cx="65" cy="205" r="5"></circle>
                <circle id="Oval-Copy-15" opacity="0.3" transform="translate(65.000000, 225.000000) rotate(90.000000) translate(-65.000000, -225.000000) " cx="65" cy="225" r="5"></circle>
                <circle id="Oval-Copy-16" opacity="0.3" transform="translate(65.000000, 245.000000) rotate(90.000000) translate(-65.000000, -245.000000) " cx="65" cy="245" r="5"></circle>
                <circle id="Oval-Copy-17" opacity="0.3" transform="translate(65.000000, 265.000000) rotate(90.000000) translate(-65.000000, -265.000000) " cx="65" cy="265" r="5"></circle>
                <circle id="Oval-Copy-18" opacity="0.3" transform="translate(65.000000, 285.000000) rotate(90.000000) translate(-65.000000, -285.000000) " cx="65" cy="285" r="5"></circle>
                <circle id="Oval-Copy-19" opacity="0.3" transform="translate(65.000000, 305.000000) rotate(90.000000) translate(-65.000000, -305.000000) " cx="65" cy="305" r="5"></circle>
                <circle id="Oval-Copy-31" opacity="0.3" transform="translate(45.000000, 165.000000) rotate(90.000000) translate(-45.000000, -165.000000) " cx="45" cy="165" r="5"></circle>
                <circle id="Oval-Copy-30" opacity="0.3" transform="translate(45.000000, 185.000000) rotate(90.000000) translate(-45.000000, -185.000000) " cx="45" cy="185" r="5"></circle>
                <circle id="Oval-Copy-29" opacity="0.3" transform="translate(45.000000, 205.000000) rotate(90.000000) translate(-45.000000, -205.000000) " cx="45" cy="205" r="5"></circle>
                <circle id="Oval-Copy-28" opacity="0.3" transform="translate(45.000000, 225.000000) rotate(90.000000) translate(-45.000000, -225.000000) " cx="45" cy="225" r="5"></circle>
                <circle id="Oval-Copy-27" opacity="0.3" transform="translate(45.000000, 245.000000) rotate(90.000000) translate(-45.000000, -245.000000) " cx="45" cy="245" r="5"></circle>
                <circle id="Oval-Copy-26" opacity="0.3" transform="translate(45.000000, 265.000000) rotate(90.000000) translate(-45.000000, -265.000000) " cx="45" cy="265" r="5"></circle>
                <circle id="Oval-Copy-25" opacity="0.3" transform="translate(45.000000, 285.000000) rotate(90.000000) translate(-45.000000, -285.000000) " cx="45" cy="285" r="5"></circle>
                <circle id="Oval-Copy-24" opacity="0.3" transform="translate(45.000000, 305.000000) rotate(90.000000) translate(-45.000000, -305.000000) " cx="45" cy="305" r="5"></circle>
                <circle id="Oval-Copy-41" opacity="0.3" transform="translate(25.000000, 165.000000) rotate(90.000000) translate(-25.000000, -165.000000) " cx="25" cy="165" r="5"></circle>
                <circle id="Oval-Copy-40" opacity="0.3" transform="translate(25.000000, 185.000000) rotate(90.000000) translate(-25.000000, -185.000000) " cx="25" cy="185" r="5"></circle>
                <circle id="Oval-Copy-39" opacity="0.3" transform="translate(25.000000, 205.000000) rotate(90.000000) translate(-25.000000, -205.000000) " cx="25" cy="205" r="5"></circle>
                <circle id="Oval-Copy-38" opacity="0.3" transform="translate(25.000000, 225.000000) rotate(90.000000) translate(-25.000000, -225.000000) " cx="25" cy="225" r="5"></circle>
                <circle id="Oval-Copy-37" opacity="0.3" transform="translate(25.000000, 245.000000) rotate(90.000000) translate(-25.000000, -245.000000) " cx="25" cy="245" r="5"></circle>
                <circle id="Oval-Copy-36" opacity="0.3" transform="translate(25.000000, 265.000000) rotate(90.000000) translate(-25.000000, -265.000000) " cx="25" cy="265" r="5"></circle>
                <circle id="Oval-Copy-35" opacity="0.3" transform="translate(25.000000, 285.000000) rotate(90.000000) translate(-25.000000, -285.000000) " cx="25" cy="285" r="5"></circle>
                <circle id="Oval-Copy-34" opacity="0.3" transform="translate(25.000000, 305.000000) rotate(90.000000) translate(-25.000000, -305.000000) " cx="25" cy="305" r="5"></circle>
                <circle id="Oval-Copy-51" opacity="0.3" transform="translate(5.000000, 165.000000) rotate(90.000000) translate(-5.000000, -165.000000) " cx="5" cy="165" r="5"></circle>
                <circle id="Oval-Copy-50" opacity="0.3" transform="translate(5.000000, 185.000000) rotate(90.000000) translate(-5.000000, -185.000000) " cx="5" cy="185" r="5"></circle>
                <circle id="Oval-Copy-49" opacity="0.3" transform="translate(5.000000, 205.000000) rotate(90.000000) translate(-5.000000, -205.000000) " cx="5" cy="205" r="5"></circle>
                <circle id="Oval-Copy-48" opacity="0.3" transform="translate(5.000000, 225.000000) rotate(90.000000) translate(-5.000000, -225.000000) " cx="5" cy="225" r="5"></circle>
                <circle id="Oval-Copy-47" opacity="0.3" transform="translate(5.000000, 245.000000) rotate(90.000000) translate(-5.000000, -245.000000) " cx="5" cy="245" r="5"></circle>
                <circle id="Oval-Copy-46" opacity="0.3" transform="translate(5.000000, 265.000000) rotate(90.000000) translate(-5.000000, -265.000000) " cx="5" cy="265" r="5"></circle>
                <circle id="Oval-Copy-45" opacity="0.3" transform="translate(5.000000, 285.000000) rotate(90.000000) translate(-5.000000, -285.000000) " cx="5" cy="285" r="5"></circle>
                <circle id="Oval-Copy-44" opacity="0.3" transform="translate(5.000000, 305.000000) rotate(90.000000) translate(-5.000000, -305.000000) " cx="5" cy="305" r="5"></circle>
                <circle id="Oval" opacity="0.3" transform="translate(65.000000, 5.000000) rotate(90.000000) translate(-65.000000, -5.000000) " cx="65" cy="5" r="5"></circle>
                <circle id="Oval-Copy-13" opacity="0.3" transform="translate(65.000000, 25.000000) rotate(90.000000) translate(-65.000000, -25.000000) " cx="65" cy="25" r="5"></circle>
                <circle id="Oval-Copy-14" opacity="0.3" transform="translate(65.000000, 45.000000) rotate(90.000000) translate(-65.000000, -45.000000) " cx="65" cy="45" r="5"></circle>
                <circle id="Oval-Copy-15" opacity="0.3" transform="translate(65.000000, 65.000000) rotate(90.000000) translate(-65.000000, -65.000000) " cx="65" cy="65" r="5"></circle>
                <circle id="Oval-Copy-16" opacity="0.3" transform="translate(65.000000, 85.000000) rotate(90.000000) translate(-65.000000, -85.000000) " cx="65" cy="85" r="5"></circle>
                <circle id="Oval-Copy-17" opacity="0.3" transform="translate(65.000000, 105.000000) rotate(90.000000) translate(-65.000000, -105.000000) " cx="65" cy="105" r="5"></circle>
                <circle id="Oval-Copy-18" opacity="0.3" transform="translate(65.000000, 125.000000) rotate(90.000000) translate(-65.000000, -125.000000) " cx="65" cy="125" r="5"></circle>
                <circle id="Oval-Copy-19" opacity="0.3" transform="translate(65.000000, 145.000000) rotate(90.000000) translate(-65.000000, -145.000000) " cx="65" cy="145" r="5"></circle>
                <circle id="Oval-Copy-31" opacity="0.3" transform="translate(45.000000, 5.000000) rotate(90.000000) translate(-45.000000, -5.000000) " cx="45" cy="5" r="5"></circle>
                <circle id="Oval-Copy-30" opacity="0.3" transform="translate(45.000000, 25.000000) rotate(90.000000) translate(-45.000000, -25.000000) " cx="45" cy="25" r="5"></circle>
                <circle id="Oval-Copy-29" opacity="0.3" transform="translate(45.000000, 45.000000) rotate(90.000000) translate(-45.000000, -45.000000) " cx="45" cy="45" r="5"></circle>
                <circle id="Oval-Copy-28" opacity="0.3" transform="translate(45.000000, 65.000000) rotate(90.000000) translate(-45.000000, -65.000000) " cx="45" cy="65" r="5"></circle>
                <circle id="Oval-Copy-27" opacity="0.3" transform="translate(45.000000, 85.000000) rotate(90.000000) translate(-45.000000, -85.000000) " cx="45" cy="85" r="5"></circle>
                <circle id="Oval-Copy-26" opacity="0.3" transform="translate(45.000000, 105.000000) rotate(90.000000) translate(-45.000000, -105.000000) " cx="45" cy="105" r="5"></circle>
                <circle id="Oval-Copy-25" opacity="0.3" transform="translate(45.000000, 125.000000) rotate(90.000000) translate(-45.000000, -125.000000) " cx="45" cy="125" r="5"></circle>
                <circle id="Oval-Copy-24" opacity="0.3" transform="translate(45.000000, 145.000000) rotate(90.000000) translate(-45.000000, -145.000000) " cx="45" cy="145" r="5"></circle>
                <circle id="Oval-Copy-41" opacity="0.3" transform="translate(25.000000, 5.000000) rotate(90.000000) translate(-25.000000, -5.000000) " cx="25" cy="5" r="5"></circle>
                <circle id="Oval-Copy-40" opacity="0.3" transform="translate(25.000000, 25.000000) rotate(90.000000) translate(-25.000000, -25.000000) " cx="25" cy="25" r="5"></circle>
                <circle id="Oval-Copy-39" opacity="0.3" transform="translate(25.000000, 45.000000) rotate(90.000000) translate(-25.000000, -45.000000) " cx="25" cy="45" r="5"></circle>
                <circle id="Oval-Copy-38" opacity="0.3" transform="translate(25.000000, 65.000000) rotate(90.000000) translate(-25.000000, -65.000000) " cx="25" cy="65" r="5"></circle>
                <circle id="Oval-Copy-37" opacity="0.3" transform="translate(25.000000, 85.000000) rotate(90.000000) translate(-25.000000, -85.000000) " cx="25" cy="85" r="5"></circle>
                <circle id="Oval-Copy-36" opacity="0.3" transform="translate(25.000000, 105.000000) rotate(90.000000) translate(-25.000000, -105.000000) " cx="25" cy="105" r="5"></circle>
                <circle id="Oval-Copy-35" opacity="0.3" transform="translate(25.000000, 125.000000) rotate(90.000000) translate(-25.000000, -125.000000) " cx="25" cy="125" r="5"></circle>
                <circle id="Oval-Copy-34" opacity="0.3" transform="translate(25.000000, 145.000000) rotate(90.000000) translate(-25.000000, -145.000000) " cx="25" cy="145" r="5"></circle>
                <circle id="Oval-Copy-51" opacity="0.3" transform="translate(5.000000, 5.000000) rotate(90.000000) translate(-5.000000, -5.000000) " cx="5" cy="5" r="5"></circle>
                <circle id="Oval-Copy-50" opacity="0.3" transform="translate(5.000000, 25.000000) rotate(90.000000) translate(-5.000000, -25.000000) " cx="5" cy="25" r="5"></circle>
                <circle id="Oval-Copy-49" opacity="0.3" transform="translate(5.000000, 45.000000) rotate(90.000000) translate(-5.000000, -45.000000) " cx="5" cy="45" r="5"></circle>
                <circle id="Oval-Copy-48" opacity="0.3" transform="translate(5.000000, 65.000000) rotate(90.000000) translate(-5.000000, -65.000000) " cx="5" cy="65" r="5"></circle>
                <circle id="Oval-Copy-47" opacity="0.3" transform="translate(5.000000, 85.000000) rotate(90.000000) translate(-5.000000, -85.000000) " cx="5" cy="85" r="5"></circle>
                <circle id="Oval-Copy-46" opacity="0.3" transform="translate(5.000000, 105.000000) rotate(90.000000) translate(-5.000000, -105.000000) " cx="5" cy="105" r="5"></circle>
                <circle id="Oval-Copy-45" opacity="0.3" transform="translate(5.000000, 125.000000) rotate(90.000000) translate(-5.000000, -125.000000) " cx="5" cy="125" r="5"></circle>
                <circle id="Oval-Copy-44" opacity="0.3" transform="translate(5.000000, 145.000000) rotate(90.000000) translate(-5.000000, -145.000000) " cx="5" cy="145" r="5"></circle>
            </g>
        </g>
    </g>
</svg>