<?xml version="1.0" encoding="UTF-8"?>
<svg width="170px" height="70px" viewBox="0 0 170 70" version="1.1" xmlns="http://www.w3.org/2000/svg" xmlns:xlink="http://www.w3.org/1999/xlink">
    <!-- Generator: sketchtool 63.1 (101010) - https://sketch.com -->
    <title>14E4A985-6084-4479-AEE3-F649E2AF1C5E@1.5x</title>
    <desc>Created with sketchtool.</desc>
    <g id="Home" stroke="none" stroke-width="1" fill="none" fill-rule="evenodd" opacity="0.3">
        <g id="3.0_web_home_2" transform="translate(-64.000000, -1460.000000)" fill="#663399">
            <g id="text_carousel_dots_1" transform="translate(149.000000, 1495.000000) scale(-1, 1) translate(-149.000000, -1495.000000) translate(64.000000, 1460.000000)">
                <circle id="Oval-Copy-41" cx="5" cy="5" r="5"></circle>
                <circle id="Oval-Copy-40" cx="25" cy="5" r="5"></circle>
                <circle id="Oval-Copy-39" cx="45" cy="5" r="5"></circle>
                <circle id="Oval-Copy-38" cx="65" cy="5" r="5"></circle>
                <circle id="Oval-Copy-37" cx="85" cy="5" r="5"></circle>
                <circle id="Oval-Copy-36" cx="105" cy="5" r="5"></circle>
                <circle id="Oval-Copy-35" cx="125" cy="5" r="5"></circle>
                <circle id="Oval-Copy-34" cx="145" cy="5" r="5"></circle>
                <circle id="Oval-Copy-33" cx="165" cy="5" r="5"></circle>
                <circle id="Oval-Copy-51" cx="5" cy="25" r="5"></circle>
                <circle id="Oval-Copy-50" cx="25" cy="25" r="5"></circle>
                <circle id="Oval-Copy-49" cx="45" cy="25" r="5"></circle>
                <circle id="Oval-Copy-48" cx="65" cy="25" r="5"></circle>
                <circle id="Oval-Copy-47" cx="85" cy="25" r="5"></circle>
                <circle id="Oval-Copy-46" cx="105" cy="25" r="5"></circle>
                <circle id="Oval-Copy-45" cx="125" cy="25" r="5"></circle>
                <circle id="Oval-Copy-44" cx="145" cy="25" r="5"></circle>
                <circle id="Oval-Copy-43" cx="165" cy="25" r="5"></circle>
                <circle id="Oval-Copy-61" cx="5" cy="45" r="5"></circle>
                <circle id="Oval-Copy-60" cx="25" cy="45" r="5"></circle>
                <circle id="Oval-Copy-59" cx="45" cy="45" r="5"></circle>
                <circle id="Oval-Copy-58" cx="65" cy="45" r="5"></circle>
                <circle id="Oval-Copy-57" cx="85" cy="45" r="5"></circle>
                <circle id="Oval-Copy-56" cx="105" cy="45" r="5"></circle>
                <circle id="Oval-Copy-55" cx="125" cy="45" r="5"></circle>
                <circle id="Oval-Copy-54" cx="145" cy="45" r="5"></circle>
                <circle id="Oval-Copy-53" cx="165" cy="45" r="5"></circle>
                <circle id="Oval-Copy-71" cx="5" cy="65" r="5"></circle>
                <circle id="Oval-Copy-70" cx="25" cy="65" r="5"></circle>
                <circle id="Oval-Copy-69" cx="45" cy="65" r="5"></circle>
                <circle id="Oval-Copy-68" cx="65" cy="65" r="5"></circle>
                <circle id="Oval-Copy-67" cx="85" cy="65" r="5"></circle>
                <circle id="Oval-Copy-66" cx="105" cy="65" r="5"></circle>
                <circle id="Oval-Copy-65" cx="125" cy="65" r="5"></circle>
                <circle id="Oval-Copy-64" cx="145" cy="65" r="5"></circle>
                <circle id="Oval-Copy-63" cx="165" cy="65" r="5"></circle>
            </g>
        </g>
    </g>
</svg>